<?xml version="1.0"?>
<svg xmlns="http://www.w3.org/2000/svg" height="512px" viewBox="0 0 511 511.998" width="512px" class=""><g><path d="m156.550781 400.957031-65.527343 65.527344c75.003906 53.558594 179.882812 46.6875 247.207031-20.636719l135.289062-135.292968-45.390625-45.390626-135.789062 135.792969c-37.496094 37.496094-98.289063 37.496094-135.789063 0zm0 0" fill="#ff5d5d" data-original="#FF5D5D" class="active-path" style="fill:#3791A6" data-old_color="#59A4B5"/><path d="m132.546875 381.953125c11.328125 11.328125 24.789063 19.207031 39.082031 23.691406-1.726562-1.5-3.433594-3.046875-5.074218-4.6875-1.007813-1.007812-1.976563-2.039062-2.929688-3.078125-10.546875-4.660156-20.433594-11.285156-29.078125-19.929687-37.496094-37.496094-37.496094-98.289063 0-135.789063l135.789063-135.789062-40.390626-40.390625-131.289062 131.289062c-65.921875 65.925781-73.886719 167.847657-23.910156 242.480469zm0 0" fill="#72d8ff" data-original="#72D8FF" class="" style="fill:#3791A6" data-old_color="#72D8FF"/><path d="m406.234375 242.15625 67.839844 67.839844-62.695313 62.695312-67.839844-67.835937zm0 0" fill="#fff" data-original="#FFF" class="" style="fill:#59A4B5" data-old_color="#3791A6"/><path d="m202.523438 38.449219 67.839843 67.835937-62.699219 62.699219-67.839843-67.839844zm0 0" fill="#fff" data-original="#FFF" class="" style="fill:#59A4B5" data-old_color="#3791A6"/><path d="m413.199219 235.089844c-3.90625-3.90625-10.238281-3.90625-14.144531 0l-135.789063 135.789062c-16.246094 16.246094-37.847656 25.195313-60.824219 25.195313-22.976562 0-44.574218-8.949219-60.820312-25.195313-16.25-16.246094-25.195313-37.847656-25.195313-60.824218 0-22.972657 8.949219-44.574219 25.195313-60.820313l135.789062-135.789063c1.875-1.875 2.929688-4.421874 2.929688-7.074218s-1.054688-5.195313-2.929688-7.070313l-67.894531-67.894531c-3.910156-3.90625-10.238281-3.90625-14.148437 0l-135.789063 135.789062c-78.773437 78.773438-78.773437 206.949219 0 285.722657 39.390625 39.386719 91.125 59.078125 142.863281 59.078125 51.738282 0 103.476563-19.691406 142.863282-59.078125l135.789062-135.789063c1.875-1.878906 2.929688-4.421875 2.929688-7.074218 0-2.652344-1.054688-5.195313-2.929688-7.070313zm-210.757813-182.46875 53.75 53.75-48.496094 48.496094-53.75-53.75zm-128.714844 128.71875 66.074219-66.074219 53.75 53.75-66.074219 66.074219c-20.027343 20.023437-31.054687 46.648437-31.054687 74.964844 0 24.957031 8.570313 48.597656 24.3125 67.5625l-53.886719 53.886718c-64.011718-71.382812-61.722656-181.5625 6.878906-250.164062zm257.433594 257.433594c-68.601562 68.601562-178.78125 70.886718-250.164062 6.875l53.886718-53.890626c41.609376 34.457032 103.574219 32.21875 142.527344-6.734374l66.074219-66.074219 53.75 53.75zm80.21875-80.21875-53.75-53.75 48.496094-48.5 53.75 53.75zm0 0" data-original="#000000" class="" style="fill:#4C5B5C" data-old_color="#000000"/><path d="m266.085938 64.464844c2.5625 0 5.121093-.976563 7.074218-2.929688l16.589844-16.585937c1.875-1.875 2.929688-4.421875 2.929688-7.074219s-1.054688-5.195312-2.929688-7.070312l-4.214844-4.214844 9.515625-9.515625c3.90625-3.90625 3.90625-10.238281 0-14.144531-3.90625-3.90625-10.238281-3.90625-14.144531 0l-16.589844 16.589843c-1.875 1.875-2.929687 4.417969-2.929687 7.070313s1.054687 5.195312 2.929687 7.074218l4.214844 4.210938-9.515625 9.515625c-3.90625 3.90625-3.90625 10.238281 0 14.144531 1.953125 1.953125 4.511719 2.929688 7.070313 2.929688zm0 0" data-original="#000000" class="" style="fill:#4C5B5C" data-old_color="#000000"/><path d="m509.558594 194.589844c-3.90625-3.90625-10.238282-3.90625-14.148438 0l-20.289062 20.289062c-1.875 1.875-2.929688 4.417969-2.929688 7.074219 0 2.652344 1.054688 5.195313 2.929688 7.070313l6.730468 6.730468-13.21875 13.21875c-3.90625 3.90625-3.90625 10.238282 0 14.144532 1.953126 1.953124 4.515626 2.929687 7.074219 2.929687 2.558594 0 5.117188-.976563 7.070313-2.929687l20.292968-20.289063c1.875-1.875 2.929688-4.421875 2.929688-7.074219s-1.054688-5.195312-2.929688-7.070312l-6.730468-6.730469 13.21875-13.21875c3.90625-3.90625 3.90625-10.238281 0-14.144531zm0 0" data-original="#000000" class="" style="fill:#4C5B5C" data-old_color="#000000"/><path d="m301.988281 409.601562c-14.078125 14.078126-30.5625 24.804688-48.992187 31.882813-5.15625 1.980469-7.730469 7.765625-5.75 12.921875 1.527344 3.980469 5.316406 6.421875 9.339844 6.421875 1.191406 0 2.402343-.214844 3.582031-.667969 21.0625-8.089844 39.890625-20.339844 55.964843-36.414062 3.90625-3.90625 3.90625-10.238282 0-14.144532s-10.242187-3.90625-14.144531 0zm0 0" data-original="#000000" class="" style="fill:#4C5B5C" data-old_color="#000000"/><path d="m342.46875 383.257812c-1.863281-1.859374-4.441406-2.929687-7.074219-2.929687-2.628906 0-5.210937 1.070313-7.070312 2.929687-1.859375 1.871094-2.929688 4.441407-2.929688 7.074219 0 2.640625 1.070313 5.210938 2.929688 7.070313 1.859375 1.871094 4.441406 2.9375 7.070312 2.9375 2.632813 0 5.210938-1.066406 7.074219-2.9375 1.859375-1.859375 2.929688-4.433594 2.929688-7.070313 0-2.632812-1.070313-5.203125-2.929688-7.074219zm0 0" data-original="#000000" class="" style="fill:#4C5B5C" data-old_color="#000000"/></g> </svg>
