<?xml version="1.0"?>
<svg xmlns="http://www.w3.org/2000/svg" xmlns:xlink="http://www.w3.org/1999/xlink" version="1.1" id="Capa_1" x="0px" y="0px" viewBox="0 0 440.96 440.96" style="enable-background:new 0 0 440.96 440.96;" xml:space="preserve" width="512px" height="512px" class=""><g><path style="fill:#59A4B5" d="M169.28,164.64c-11.333,0.708-21.094-7.905-21.802-19.238s7.905-21.094,19.238-21.802  c0.854-0.053,1.71-0.053,2.564,0h107.2c11.333-0.708,21.094,7.905,21.802,19.238c0.708,11.333-7.905,21.094-19.238,21.802  c-0.854,0.053-1.71,0.053-2.564,0H169.28z" data-original="#FFA757" class="" data-old_color="#FFA757"/><path style="fill:#3791A6" d="M177.36,123.6L136.8,68.16h171.92l-40.56,55.44H177.36z" data-original="#FFE05F" class="" data-old_color="##4C5B5"/><path style="fill:#59A4B5" d="M136.8,68.16V8h30.8v23.76h37.04V8h36.24v23.76H278V8h30.72v60.16L136.8,68.16z" data-original="#FFA757" class="" data-old_color="#FFA757"/><path style="fill:#3791A6" d="M120.56,375.68c-11.333,0.708-21.094-7.905-21.802-19.238s7.905-21.094,19.238-21.802  c0.854-0.053,1.71-0.053,2.564,0h204.4c11.333-0.708,21.094,7.905,21.802,19.238c0.708,11.333-7.905,21.094-19.238,21.802  c-0.854,0.053-1.71,0.053-2.564,0H120.56z" data-original="#FFE05F" class="" data-old_color="##4C5B5"/><path style="fill:#59A4B5" d="M85.28,433.2l0.16-57.52l270.24,0.08v57.44l-8.16,0.08L85.28,433.2z" data-original="#FFA757" class="" data-old_color="#FFA757"/><path style="fill:#3791A6" d="M136.8,334.56l40.56-169.92h90.8l40.56,169.92H136.8z" data-original="#FFE05F" class="" data-old_color="##4C5B5"/><path style="fill:#4C5B5C" d="M350.32,367.92c2.065-3.953,3.162-8.34,3.2-12.8c0-15.773-12.787-28.56-28.56-28.56h-9.92  l-36.8-153.92c15.661-0.859,27.661-14.251,26.802-29.912c-0.69-12.577-9.582-23.198-21.842-26.088l32-43.68  c0.247-0.381,0.461-0.783,0.64-1.2V71.2c0.354-0.812,0.57-1.677,0.64-2.56l0,0V8c0-4.418-3.582-8-8-8H278c-4.418,0-8,3.582-8,8v16  h-21.12V8c0-4.418-3.582-8-8-8h-36.4c-4.418,0-8,3.582-8,8v16h-20.96V8c0-4.418-3.582-8-8-8H136.8c-4.418,0-8,3.582-8,8v60.16l0,0  c0.027,0.932,0.216,1.853,0.56,2.72v0.56c0.179,0.417,0.393,0.819,0.64,1.2l32,43.68c-15.267,3.598-24.726,18.891-21.128,34.158  c2.89,12.26,13.51,21.153,26.088,21.842l-36.8,154.08h-9.6c-15.773,0-28.56,12.787-28.56,28.56c0.026,4.366,1.067,8.666,3.04,12.56  h-1.6c-8.837,0-16,7.163-16,16v41.44c0,8.837,7.163,16,16,16h254.08c8.837,0,16-7.163,16-16v-41.2  C363.562,375.971,357.989,369.283,350.32,367.92L350.32,367.92z M144.8,15.92h14.72v16c0,4.418,3.582,8,8,8h36.96  c4.418,0,8-3.582,8-8v-16h20.24v16c0,4.418,3.582,8,8,8h37.04c4.418,0,8-3.582,8-8v-16h14.72v44.16H144.8L144.8,15.92z M152.8,76.08  h140.16l-28.88,39.44h-82.64L152.8,76.08z M156.96,144.08c0-6.937,5.623-12.56,12.56-12.56h106.96  c6.937-0.005,12.564,5.614,12.569,12.551c0.005,6.937-5.615,12.564-12.551,12.569c-0.006,0-0.012,0-0.018,0h-107.2  c-6.935,0.133-12.665-5.382-12.798-12.317c-0.001-0.054-0.002-0.108-0.002-0.163L156.96,144.08z M183.68,172.64h78.16l36.72,153.92  h-152L183.68,172.64z M120.56,342.56h204.4c6.915-0.553,12.968,4.604,13.522,11.518c0.553,6.915-4.604,12.968-11.518,13.522  c-0.667,0.053-1.336,0.053-2.003,0h-204.4c-6.915,0.553-12.968-4.604-13.522-11.518c-0.553-6.915,4.604-12.968,11.518-13.522  C119.223,342.507,119.893,342.507,120.56,342.56L120.56,342.56z M347.6,425.2H93.36v-41.52H347.6V425.2z" data-original="#3F342B" class="active-path" data-old_color="#59A4B5"/></g> </svg>
