<?xml version="1.0"?>
<svg xmlns="http://www.w3.org/2000/svg" height="512px" viewBox="-33 0 512 512.002" width="512px" class=""><g><path d="m398.78125 256.003906c0 97.199219-78.796875 176-176 176-97.199219 0-176-78.800781-176-176 0-97.203125 78.800781-176 176-176 97.203125 0 176 78.796875 176 176zm0 0" fill="#d7e9ff" data-original="#D7E9FF" class="" style="fill:#59A4B5" data-old_color="#D7E9FF"/><path d="m222.78125 80.003906c-5.398438 0-10.726562.277344-16 .757813 89.703125 8.082031 160 83.433593 160 175.242187 0 91.804688-70.296875 167.15625-160 175.238282 5.273438.480468 10.601562.761718 16 .761718 97.199219 0 176-78.800781 176-176 0-97.203125-78.800781-176-176-176zm0 0" fill="#94c1ff" data-original="#94C1FF" class="" style="fill:#3791A6" data-old_color="#94C1FF"/><path d="m294.78125 208.003906v24.238282l-24-16.238282s-16 8-44 8c-27.917969 0-52-8-52-8l-24 16.238282v-24.238282c0-35.363281 28.640625-64 64-64h48v32c17.679688 0 32 14.316406 32 32zm0 0" fill="#94c1ff" data-original="#94C1FF" class="" style="fill:#3791A6" data-old_color="#94C1FF"/><path d="m262.78125 176.003906v-32h-32v48c17.679688 0 32 6.316406 32 24v2.957032c5.152344-1.589844 8-2.957032 8-2.957032l24 16.238282v-24.238282c0-17.683594-14.320312-32-32-32zm0 0" fill="#5c9eff" data-original="#5C9EFF" class="" style="fill:#67B8C9" data-old_color="#66B8C9"/><path d="m294.78125 232.242188v23.761718c0 28.238282-16.320312 52.71875-40 64.476563-9.597656 4.800781-20.480469 7.523437-32 7.523437s-22.398438-2.722656-32-7.523437c-23.597656-11.679688-39.839844-36-40-64.078125v-24.160156l24-16.238282s24.082031 8 52 8c28 0 44-8 44-8zm0 0" fill="#d7e9ff" data-original="#D7E9FF" class="" style="fill:#59A4B5" data-old_color="#D7E9FF"/><path d="m270.78125 216.003906s-2.847656 1.367188-8 2.957032v37.042968c0 28.238282-16.320312 52.71875-40 64.476563-5.015625 2.503906-10.382812 4.417969-16 5.699219 5.144531 1.167968 10.496094 1.824218 16 1.824218 11.519531 0 22.402344-2.722656 32-7.523437 23.679688-11.757813 40-36.230469 40-64.476563v-23.761718zm0 0" fill="#94c1ff" data-original="#94C1FF" class="" style="fill:#3791A6" data-old_color="#94C1FF"/><path d="m222.78125 328.003906c11.519531 0 22.402344-2.722656 32-7.523437v31.523437l-16 8-16-8-16 8-16-8v-31.523437c9.601562 4.800781 20.480469 7.523437 32 7.523437zm0 0" fill="#fff" data-original="#FFF" class="active-path" style="fill:#59A4B5" data-old_color="#FFF"/><path d="m238.78125 360.003906 16-8h24c22.160156 0 40 17.917969 40 40v11.519532c-27.597656 18-60.640625 28.480468-96 28.480468-35.4375 0-68.398438-10.480468-96-28.480468v-11.519532c0-22.082031 17.921875-40 40-40h24l16 8 16-8zm0 0" fill="#94c1ff" data-original="#94C1FF" class="" style="fill:#3791A6" data-old_color="#94C1FF"/><path d="m278.78125 352.003906h-24l-1.34375.671875c18.953125 3.175781 33.34375 19.519531 33.34375 39.328125v27.941406c11.273438-4.40625 22-9.902343 32-16.421874v-11.519532c0-22.082031-17.839844-40-40-40zm0 0" fill="#5c9eff" data-original="#5C9EFF" class="" style="fill:#67B8C9" data-old_color="#66B8C9"/><g fill="#116fff"><path d="m126.773438 400.003906c-4.421876 0-8-3.578125-8-8 0-26.472656 21.527343-48 48-48 4.425781 0 8 3.574219 8 8 0 4.421875-3.574219 8-8 8-17.648438 0-32 14.351563-32 32 0 4.421875-3.574219 8-8 8zm0 0" data-original="#000000" class="" style="fill:#4C5B5C" data-old_color="#000000"/><path d="m190.773438 360.003906h-24c-4.421876 0-8-3.578125-8-8 0-4.425781 3.578124-8 8-8h24c4.425781 0 8 3.574219 8 8 0 4.421875-3.574219 8-8 8zm0 0" data-original="#000000" class="" style="fill:#4C5B5C" data-old_color="#000000"/><path d="m126.773438 411.523438c-4.421876 0-8-3.578126-8-8v-11.519532c0-4.425781 3.578124-8 8-8 4.425781 0 8 3.574219 8 8v11.519532c0 4.421874-3.574219 8-8 8zm0 0" data-original="#000000" class="" style="fill:#4C5B5C" data-old_color="#000000"/><path d="m318.773438 400.003906c-4.421876 0-8-3.578125-8-8 0-17.648437-14.351563-32-32-32-4.421876 0-8-3.578125-8-8 0-4.425781 3.578124-8 8-8 26.472656 0 48 21.527344 48 48 0 4.421875-3.574219 8-8 8zm0 0" data-original="#000000" class="" style="fill:#4C5B5C" data-old_color="#000000"/><path d="m278.773438 360.003906h-24c-4.421876 0-8-3.578125-8-8 0-4.425781 3.578124-8 8-8h24c4.425781 0 8 3.574219 8 8 0 4.421875-3.574219 8-8 8zm0 0" data-original="#000000" class="" style="fill:#4C5B5C" data-old_color="#000000"/><path d="m318.773438 411.523438c-4.421876 0-8-3.578126-8-8v-11.519532c0-4.425781 3.578124-8 8-8 4.425781 0 8 3.574219 8 8v11.519532c0 4.421874-3.574219 8-8 8zm0 0" data-original="#000000" class="" style="fill:#4C5B5C" data-old_color="#000000"/><path d="m190.773438 360.003906c-4.421876 0-8-3.578125-8-8v-31.488281c0-4.425781 3.578124-8 8-8 4.425781 0 8 3.574219 8 8v31.488281c0 4.421875-3.574219 8-8 8zm0 0" data-original="#000000" class="" style="fill:#4C5B5C" data-old_color="#000000"/><path d="m254.773438 360.003906c-4.421876 0-8-3.578125-8-8v-31.488281c0-4.425781 3.578124-8 8-8 4.425781 0 8 3.574219 8 8v31.488281c0 4.421875-3.574219 8-8 8zm0 0" data-original="#000000" class="" style="fill:#4C5B5C" data-old_color="#000000"/><path d="m262.773438 152.003906h-48c-4.421876 0-8-3.585937-8-8 0-4.417968 3.578124-8 8-8h48c4.425781 0 8 3.582032 8 8 0 4.414063-3.574219 8-8 8zm0 0" data-original="#000000" class="" style="fill:#4C5B5C" data-old_color="#000000"/><path d="m222.765625 336.003906c-44.113281 0-79.992187-35.882812-79.992187-79.984375 0-4.417969 3.578124-8 8-8 4.425781 0 8 3.582031 8 8 0 35.277344 28.703124 63.984375 63.992187 63.984375 35.296875 0 64.007813-28.707031 64.007813-63.984375 0-4.417969 3.578124-8 8-8 4.425781 0 8 3.582031 8 8 0 44.101563-35.886719 79.984375-80.007813 79.984375zm0 0" data-original="#000000" class="" style="fill:#4C5B5C" data-old_color="#000000"/><path d="m150.773438 264.410156c-4.421876 0-8-3.585937-8-8v-48.40625c0-4.417968 3.578124-8 8-8 4.425781 0 8 3.582032 8 8v48.40625c0 4.414063-3.574219 8-8 8zm0 0" data-original="#000000" class="" style="fill:#4C5B5C" data-old_color="#000000"/><path d="m294.773438 264.019531c-4.421876 0-8-3.585937-8-8v-48.015625c0-4.417968 3.578124-8 8-8 4.425781 0 8 3.582032 8 8v48.015625c0 4.414063-3.574219 8-8 8zm0 0" data-original="#000000" class="" style="fill:#4C5B5C" data-old_color="#000000"/><path d="m294.773438 215.992188c-4.421876 0-8-3.582032-8-8 0-13.230469-10.765626-23.988282-24-23.988282-4.421876 0-8-3.585937-8-8 0-4.417968 3.578124-8 8-8 22.058593 0 40 17.941406 40 39.988282 0 4.417968-3.574219 8-8 8zm0 0" data-original="#000000" class="" style="fill:#4C5B5C" data-old_color="#000000"/><path d="m262.773438 184.003906c-4.421876 0-8-3.585937-8-8v-32c0-4.417968 3.578124-8 8-8 4.425781 0 8 3.582032 8 8v32c0 4.414063-3.574219 8-8 8zm0 0" data-original="#000000" class="" style="fill:#4C5B5C" data-old_color="#000000"/><path d="m150.773438 216.003906c-4.421876 0-8-3.585937-8-8 0-39.699218 32.296874-72 72-72 4.425781 0 8 3.582032 8 8 0 4.414063-3.574219 8-8 8-30.871094 0-56 25.117188-56 56 0 4.414063-3.574219 8-8 8zm0 0" data-original="#000000" class="" style="fill:#4C5B5C" data-old_color="#000000"/><path d="m294.765625 240.203125c-1.535156 0-3.09375-.441406-4.472656-1.367187l-24-16.203126c-3.664063-2.472656-4.621094-7.445312-2.160157-11.101562 2.480469-3.65625 7.441407-4.640625 11.113282-2.152344l24 16.199219c3.664062 2.472656 4.625 7.449219 2.160156 11.105469-1.542969 2.285156-4.070312 3.519531-6.640625 3.519531zm0 0" data-original="#000000" class="" style="fill:#4C5B5C" data-old_color="#000000"/><path d="m226.773438 232.003906c-28.894532 0-53.496094-8.066406-54.519532-8.410156-4.183594-1.390625-6.457031-5.910156-5.070312-10.105469 1.390625-4.191406 5.917968-6.496093 10.109375-5.078125.234375.078125 23.265625 7.59375 49.480469 7.59375 25.425781 0 40.320312-7.105468 40.472656-7.179687 3.945312-1.925781 8.753906-.300781 10.695312 3.65625 1.945313 3.953125.34375 8.722656-3.589844 10.679687-.738281.363282-18.089843 8.84375-47.578124 8.84375zm0 0" data-original="#000000" class="" style="fill:#4C5B5C" data-old_color="#000000"/><path d="m150.78125 240.203125c-2.566406 0-5.09375-1.234375-6.640625-3.519531-2.46875-3.664063-1.503906-8.632813 2.160156-11.105469l24-16.199219c3.664063-2.488281 8.640625-1.503906 11.113281 2.152344 2.472657 3.664062 1.503907 8.628906-2.160156 11.101562l-24 16.203126c-1.375.925781-2.9375 1.367187-4.472656 1.367187zm0 0" data-original="#000000" class="" style="fill:#4C5B5C" data-old_color="#000000"/><path d="m206.765625 368.003906c-1.199219 0-2.421875-.273437-3.566406-.84375l-16-8c-3.953125-1.972656-5.554688-6.78125-3.578125-10.734375 1.984375-3.953125 6.792968-5.527343 10.738281-3.574219l16 8c3.949219 1.972657 5.550781 6.78125 3.574219 10.734376-1.40625 2.800781-4.230469 4.417968-7.167969 4.417968zm0 0" data-original="#000000" class="" style="fill:#4C5B5C" data-old_color="#000000"/><path d="m206.78125 368.003906c-2.933594 0-5.757812-1.617187-7.167969-4.425781-1.976562-3.953125-.375-8.761719 3.578125-10.734375l16-8c3.957032-1.953125 8.75-.378906 10.734375 3.574219 1.976563 3.953125.375 8.761719-3.574219 10.734375l-16 8c-1.144531.578125-2.371093.851562-3.570312.851562zm0 0" data-original="#000000" class="" style="fill:#4C5B5C" data-old_color="#000000"/><path d="m238.78125 368.003906c-2.933594 0-5.757812-1.617187-7.167969-4.425781-1.976562-3.953125-.375-8.761719 3.578125-10.734375l16-8c3.949219-1.953125 8.75-.378906 10.734375 3.574219 1.976563 3.953125.375 8.761719-3.574219 10.734375l-16 8c-1.144531.578125-2.371093.851562-3.570312.851562zm0 0" data-original="#000000" class="" style="fill:#4C5B5C" data-old_color="#000000"/><path d="m238.765625 368.003906c-1.199219 0-2.421875-.273437-3.566406-.84375l-16-8c-3.953125-1.972656-5.554688-6.78125-3.578125-10.734375 1.984375-3.953125 6.785156-5.527343 10.738281-3.574219l16 8c3.949219 1.972657 5.550781 6.78125 3.574219 10.734376-1.40625 2.800781-4.230469 4.417968-7.167969 4.417968zm0 0" data-original="#000000" class="" style="fill:#4C5B5C" data-old_color="#000000"/><path d="m222.773438 440.003906c-101.464844 0-184-82.539062-184-184 0-101.457031 82.535156-184 184-184 101.464843 0 184 82.542969 184 184 0 101.460938-82.535157 184-184 184zm0-352c-92.632813 0-168 75.359375-168 168 0 92.628906 75.367187 168 168 168 92.632812 0 168-75.371094 168-168 0-92.640625-75.367188-168-168-168zm0 0" data-original="#000000" class="" style="fill:#4C5B5C" data-old_color="#000000"/><path d="m222.773438 512.003906c-4.421876 0-8-3.578125-8-8v-72c0-4.425781 3.578124-8 8-8 4.425781 0 8 3.574219 8 8v72c0 4.421875-3.574219 8-8 8zm0 0" data-original="#000000" class="" style="fill:#4C5B5C" data-old_color="#000000"/><path d="m222.773438 512.003906c-2.046876 0-4.09375-.785156-5.65625-2.347656-3.125-3.125-3.125-8.183594 0-11.308594l16-16c3.128906-3.128906 8.183593-3.128906 11.3125 0 3.128906 3.125 3.128906 8.183594 0 11.308594l-16 16c-1.558594 1.5625-3.605469 2.347656-5.65625 2.347656zm0 0" data-original="#000000" class="" style="fill:#4C5B5C" data-old_color="#000000"/><path d="m222.773438 512.003906c-2.046876 0-4.09375-.785156-5.65625-2.347656l-16-16c-3.125-3.125-3.125-8.183594 0-11.308594 3.128906-3.128906 8.183593-3.128906 11.3125 0l16 16c3.128906 3.125 3.128906 8.183594 0 11.308594-1.558594 1.5625-3.605469 2.347656-5.65625 2.347656zm0 0" data-original="#000000" class="" style="fill:#4C5B5C" data-old_color="#000000"/><path d="m222.773438 88.003906c-4.421876 0-8-3.585937-8-8v-72c0-4.417968 3.578124-7.99999975 8-7.99999975 4.425781 0 8 3.58203175 8 7.99999975v72c0 4.414063-3.574219 8-8 8zm0 0" data-original="#000000" class="" style="fill:#4C5B5C" data-old_color="#000000"/><path d="m206.773438 32.003906c-2.046876 0-4.09375-.785156-5.65625-2.347656-3.125-3.125-3.125-8.183594 0-11.308594l16-16c3.128906-3.128906 8.183593-3.128906 11.3125 0 3.128906 3.125 3.128906 8.183594 0 11.308594l-16 16c-1.558594 1.5625-3.605469 2.347656-5.65625 2.347656zm0 0" data-original="#000000" class="" style="fill:#4C5B5C" data-old_color="#000000"/><path d="m238.773438 32.003906c-2.046876 0-4.09375-.785156-5.65625-2.347656l-16-16c-3.125-3.125-3.125-8.183594 0-11.308594 3.128906-3.128906 8.183593-3.128906 11.3125 0l16 16c3.128906 3.125 3.128906 8.183594 0 11.308594-1.558594 1.5625-3.605469 2.347656-5.65625 2.347656zm0 0" data-original="#000000" class="" style="fill:#4C5B5C" data-old_color="#000000"/><path d="m437.550781 388.003906c-1.359375 0-2.738281-.347656-3.992187-1.074218l-62.359375-36c-3.832031-2.207032-5.144531-7.105469-2.929688-10.925782 2.207031-3.824218 7.113281-5.152344 10.929688-2.929687l62.359375 36c3.832031 2.207031 5.144531 7.105469 2.925781 10.929687-1.484375 2.558594-4.175781 4-6.933594 4zm0 0" data-original="#000000" class="" style="fill:#4C5B5C" data-old_color="#000000"/><path d="m437.550781 388.003906c-3.527343 0-6.761719-2.355468-7.71875-5.929687l-5.859375-21.855469c-1.148437-4.265625 1.394532-8.65625 5.65625-9.800781 4.273438-1.152344 8.648438 1.382812 9.800782 5.65625l5.855468 21.855469c1.152344 4.265624-1.390625 8.65625-5.65625 9.800781-.695312.183593-1.390625.273437-2.078125.273437zm0 0" data-original="#000000" class="" style="fill:#4C5B5C" data-old_color="#000000"/><path d="m415.6875 393.859375c-3.527344 0-6.761719-2.351563-7.722656-5.929687-1.152344-4.265626 1.394531-8.65625 5.65625-9.800782l21.855468-5.855468c4.265626-1.152344 8.648438 1.382812 9.800782 5.65625 1.152344 4.265624-1.390625 8.65625-5.65625 9.800781l-21.855469 5.855469c-.695313.191406-1.390625.273437-2.078125.273437zm0 0" data-original="#000000" class="" style="fill:#4C5B5C" data-old_color="#000000"/><path d="m70.351562 176.003906c-1.359374 0-2.738281-.347656-3.992187-1.074218l-62.351563-36c-3.824218-2.207032-5.136718-7.105469-2.929687-10.925782 2.207031-3.832031 7.105469-5.144531 10.929687-2.929687l62.351563 36c3.832031 2.207031 5.144531 7.105469 2.925781 10.929687-1.480468 2.566406-4.167968 4-6.933594 4zm0 0" data-original="#000000" class="" style="fill:#4C5B5C" data-old_color="#000000"/><path d="m13.855469 161.859375c-3.527344 0-6.769531-2.363281-7.722657-5.9375l-5.847656-21.855469c-1.144531-4.273437 1.394532-8.65625 5.65625-9.800781 4.265625-1.144531 8.65625 1.390625 9.800782 5.65625l5.847656 21.855469c1.144531 4.273437-1.390625 8.65625-5.65625 9.800781-.695313.191406-1.390625.28125-2.078125.28125zm0 0" data-original="#000000" class="" style="fill:#4C5B5C" data-old_color="#000000"/><path d="m8 140.003906c-3.53125 0-6.769531-2.363281-7.722656-5.9375-1.144532-4.265625 1.394531-8.65625 5.65625-9.800781l21.847656-5.855469c4.273438-1.136718 8.664062 1.382813 9.800781 5.65625 1.144531 4.261719-1.390625 8.65625-5.65625 9.800782l-21.847656 5.855468c-.695313.191406-1.390625.28125-2.078125.28125zm0 0" data-original="#000000" class="" style="fill:#4C5B5C" data-old_color="#000000"/><path d="m375.207031 176.003906c-2.769531 0-5.457031-1.433594-6.9375-4-2.207031-3.832031-.894531-8.722656 2.929688-10.929687l62.359375-36c3.816406-2.207031 8.710937-.902344 10.925781 2.929687 2.210937 3.832032.898437 8.71875-2.925781 10.925782l-62.359375 36c-1.257813.726562-2.632813 1.074218-3.992188 1.074218zm0 0" data-original="#000000" class="" style="fill:#4C5B5C" data-old_color="#000000"/><path d="m437.566406 140.003906c-.6875 0-1.382812-.089844-2.082031-.28125l-21.855469-5.855468c-4.261718-1.144532-6.796875-5.527344-5.65625-9.800782 1.144532-4.273437 5.539063-6.808594 9.800782-5.65625l21.855468 5.855469c4.265625 1.144531 6.800782 5.527344 5.65625 9.800781-.957031 3.574219-4.191406 5.9375-7.71875 5.9375zm0 0" data-original="#000000" class="" style="fill:#4C5B5C" data-old_color="#000000"/><path d="m431.710938 161.859375c-.6875 0-1.382813-.089844-2.082032-.28125-4.261718-1.144531-6.796875-5.527344-5.65625-9.800781l5.851563-21.855469c1.140625-4.265625 5.535156-6.785156 9.796875-5.65625 4.265625 1.144531 6.800781 5.527344 5.65625 9.800781l-5.847656 21.855469c-.953126 3.585937-4.183594 5.9375-7.71875 5.9375zm0 0" data-original="#000000" class="" style="fill:#4C5B5C" data-old_color="#000000"/><path d="m8.015625 387.992188c-2.769531 0-5.457031-1.4375-6.9375-4-2.207031-3.832032-.894531-8.71875 2.929687-10.925782l62.359376-35.992187c3.808593-2.214844 8.710937-.886719 10.925781 2.929687 2.210937 3.832032.898437 8.71875-2.925781 10.925782l-62.359376 35.992187c-1.257812.726563-2.632812 1.070313-3.992187 1.070313zm0 0" data-original="#000000" class="" style="fill:#4C5B5C" data-old_color="#000000"/><path d="m29.878906 393.851562c-.6875 0-1.382812-.089843-2.082031-.273437l-21.855469-5.855469c-4.261718-1.144531-6.808594-5.527344-5.65625-9.800781s5.539063-6.792969 9.800782-5.65625l21.855468 5.855469c4.265625 1.144531 6.808594 5.527344 5.65625 9.800781-.96875 3.585937-4.191406 5.929687-7.71875 5.929687zm0 0" data-original="#000000" class="" style="fill:#4C5B5C" data-old_color="#000000"/><path d="m8.015625 387.992188c-.6875 0-1.386719-.085938-2.082031-.269532-4.261719-1.144531-6.808594-5.527344-5.65625-9.800781l5.855468-21.847656c1.152344-4.273438 5.53125-6.800781 9.800782-5.65625 4.273437 1.144531 6.808594 5.527343 5.65625 9.800781l-5.855469 21.847656c-.960937 3.574219-4.183594 5.925782-7.71875 5.925782zm0 0" data-original="#000000" class="" style="fill:#4C5B5C" data-old_color="#000000"/></g></g> </svg>
