<?xml version="1.0"?>
<svg xmlns="http://www.w3.org/2000/svg" height="512px" viewBox="0 0 511 511.77646" width="512px" class=""><g><path d="m499.503906 138.441406c-9.300781 8.621094-18.519531 17.324219-27.820312 26.027344-.179688.191406-.378906.363281-.597656.511719-34.472657 32.171875-68.921876 64.230469-103.335938 96.171875l-23.554688 22.015625c-2.117187 2-5.113281 2.773437-7.933593 2.046875-7.136719-1.804688-14.125-4.140625-20.90625-6.996094h-.085938l-102.914062 90.027344c-8.960938 8.277344-18.003907 16.46875-26.964844 24.574218-2.78125-1.296874-5.488281-2.75-8.105469-4.351562-20.820312 20.90625-41.8125 41.898438-62.722656 62.722656-7.507812 7.59375-14.929688 15.015625-22.527344 22.527344 4.183594 10.664062 4.183594 19.96875-.9375 25.085938-9.984375 9.984374-35.414062.597656-56.917968-20.820313l-.253907-.257813c-3.636719-3.585937-7.003906-7.433593-10.070312-11.519531l-.171875-.167969c-14.078125-18.433593-19.027344-37.292968-10.835938-45.484374 5.121094-5.121094 14.421875-5.121094 25-1.023438 7.597656-7.507812 15.019532-14.933594 22.53125-22.527344 20.90625-20.820312 41.898438-41.8125 62.71875-62.722656-1.535156-2.644531-2.988281-5.289062-4.265625-8.019531 8.105469-8.960938 16.296875-18.003907 24.574219-26.964844l90.625-103.679687c-2.703125-6.835938-4.929688-13.847657-6.65625-20.992188-.664062-2.808594.140625-5.761719 2.132812-7.851562 7.339844-7.765626 14.59375-15.445313 22.015626-23.210938 32-33.875 64.257812-67.839844 96.34375-101.714844.148437-.21875.320312-.417968.511718-.597656l21.246094-22.273438c.683594-.683593 1.367188-1.449218 2.046875-2.132812-.167969 1.414062.007813 2.847656.515625 4.179688 3.753906 10.753906 24.914062 22.527343 47.101562 40.875 5.699219 4.585937 11.140626 9.488281 16.300782 14.679687.082031.082031 0 6.140625 0 8.019531v.511719c3.667968 3.667969 7.082031 7.167969 10.410156 10.667969.765625.765625 1.535156 1.621094 2.21875 2.386718 2.730469 2.816407 5.203125 5.546876 7.59375 7.9375.085938.085938.085938.171876.171875.171876 7.765625 8.363281 14.503906 15.699218 20.308594 21.332031 10.238281 9.898437 17.664062 14.761719 23.210937 10.835937zm0 0" fill="#fec108" data-original="#FEC108" class="active-path" style="fill:#4C5B5C" data-old_color="#FEC108"/><path d="m476.292969 127.605469c-7 6.484375-13.910157 12.972656-20.90625 19.542969-.179688.191406-.382813.363281-.597657.511718-34.476562 32.167969-68.921874 64.226563-103.339843 96.167969l-23.550781 22.019531c-2.117188 2-5.117188 2.773438-7.9375 2.046875-7.132813-1.804687-14.121094-4.144531-20.90625-7h-.085938l-102.910156 90.027344c-8.960938 8.277344-18.007813 16.46875-26.964844 24.578125-2.78125-1.300781-5.488281-2.753906-8.109375-4.351562-20.820313 20.90625-41.8125 41.898437-62.71875 62.71875-7.507813 7.59375-14.933594 15.019531-22.527344 22.527343 4.179688 10.667969 4.179688 19.96875-.9375 25.089844-9.046875 9.042969-30.890625 2.132813-50.945312-15.277344l-.171875-.167969c-14.078125-18.433593-19.027344-37.292968-10.835938-45.484374 5.121094-5.121094 14.421875-5.121094 25-1.023438 7.597656-7.507812 15.019532-14.933594 22.53125-22.527344 20.90625-20.820312 41.898438-41.8125 62.71875-62.722656-1.535156-2.644531-2.988281-5.289062-4.265625-8.019531 8.105469-8.960938 16.296875-18.003907 24.574219-26.964844l90.625-103.679687c-2.703125-6.835938-4.929688-13.847657-6.65625-20.992188-.664062-2.808594.140625-5.761719 2.132812-7.851562 7.339844-7.765626 14.59375-15.445313 22.015626-23.210938 32-33.875 64.257812-67.839844 96.34375-101.714844.148437-.21875.320312-.417968.511718-.597656l21.246094-22.273438 2.5625 2.046876c16.578125 11.621093 32.320312 24.394531 47.101562 38.230468v2.644532c0 2.476562-.085937 5.804687 0 5.890624 5.886719 5.800782 11.265626 11.519532 16.300782 16.808594 3.667968 3.925782 7.167968 7.679688 10.410156 11.179688.765625.765625 1.535156 1.621094 2.21875 2.386718 2.730469 2.816407 5.203125 5.546876 7.59375 7.9375.085938.085938.085938.171876.171875.171876 7.765625 8.363281 14.503906 15.699218 20.308594 21.332031zm0 0" fill="#ffeb3a" data-original="#FFEB3A" class="" style="fill:#607174" data-old_color="#5F7072"/><path d="m500.527344 137.589844c-.324219.304687-.664063.589844-1.023438.851562-11.179687 7.851563-46.421875-12.117187-80.300781-45.992187-5.289063-5.292969-10.238281-10.582031-14.761719-15.871094-.085937-.085937-.253906-.171875-.339844-.34375-21.078124-24.488281-33.792968-47.53125-32.429687-59.390625.078125-2.132812.929687-4.164062 2.390625-5.71875 9.8125-9.8125 45.3125 9.644531 79.785156 43.691406l.34375.339844c.417969.347656.816406.71875 1.195313 1.109375 34.898437 34.902344 55.125 71.339844 45.140625 81.324219zm0 0" fill="#00838f" data-original="#00838F" class=""/><path d="m315.269531 278.21875-102.914062 90.027344c-3.265625-1.5625-6.429688-3.332032-9.472657-5.289063-8.292968-4.921875-16.070312-10.667969-23.210937-17.152343-1.109375-.855469-2.132813-1.792969-3.242187-2.730469-.511719-.429688-.9375-.855469-1.449219-1.367188-.769531-.769531-1.449219-1.367187-2.21875-2.21875h-.085938c-.9375-.9375-1.875-1.878906-2.730469-2.816406-.511718-.511719-.9375-.9375-1.363281-1.449219-.941406-1.109375-1.878906-2.132812-2.734375-3.242187-1.621094-1.707031-3.15625-3.5-4.691406-5.378907l-.085938-.082031c-4.554687-5.605469-8.691406-11.539062-12.371093-17.75-1.960938-3.042969-3.730469-6.207031-5.292969-9.472656l85.847656-98.132813 4.777344-5.546874c5.472656 13.777343 13.011719 26.636718 22.355469 38.144531 1.707031 2.132812 3.5 4.179687 5.292969 6.226562 1.707031 1.792969 3.414062 3.671875 5.121093 5.378907 3.394531 3.523437 6.984375 6.855468 10.75 9.984374 1.878907 1.535157 3.839844 3.070313 5.804688 4.519532 2.984375 2.304687 6.140625 4.4375 9.382812 6.488281.855469.597656 1.707031 1.109375 2.5625 1.621094 2.132813 1.363281 4.265625 2.558593 6.484375 3.753906 4.351563 2.390625 8.875 4.523437 13.484375 6.484375zm0 0" fill="#283593" data-original="#283593" class="" style="fill:#33879A" data-old_color="#33889B"/><path d="m177.285156 388.46875c-20.820312 20.90625-41.8125 41.898438-62.722656 62.722656-12.039062-4.933594-22.976562-12.214844-32.167969-21.421875-3.726562-3.617187-7.125-7.558593-10.15625-11.773437-4.820312-6.46875-8.808593-13.523438-11.859375-20.992188 20.050782-19.96875 40.191406-40.109375 60.160156-60.160156l2.558594-2.5625c3.703125 6.550781 7.957032 12.777344 12.714844 18.605469 3.390625 4.390625 7.070312 8.550781 11.007812 12.457031 3.34375 3.332031 6.875 6.464844 10.582032 9.386719 6.1875 5.183593 12.84375 9.78125 19.882812 13.738281zm0 0" fill="#283593" data-original="#283593" class="" style="fill:#33879A" data-old_color="#33889B"/><path d="m499.503906 138.441406c-9.300781 8.621094-18.519531 17.324219-27.820312 26.027344-.179688.191406-.378906.363281-.597656.511719-10.664063 8.789062-45.824219-10.664063-79.1875-44.117188-.085938-.085937-.257813-.253906-.257813-.339843-4.949219-4.949219-9.640625-9.984376-13.910156-14.933594-5.882813-6.636719-11.328125-13.648438-16.296875-20.992188-2.21875-3.15625-4.179688-6.316406-5.972656-9.300781-9.046876-15.359375-12.289063-27.820313-7.59375-33.449219.148437-.21875.320312-.417968.511718-.597656 5.117188-5.378906 10.152344-10.667969 15.273438-15.957031 2.644531-2.816407 5.375-5.632813 8.019531-8.449219-1.363281 11.859375 11.351563 34.902344 32.429687 59.390625.148438.21875.320313.417969.511719.597656 4.523438 5.121094 9.386719 10.410157 14.589844 15.617188l.257813.253906c15.183593 15.660156 32.472656 29.132813 51.371093 40.023437 13.054688 6.996094 23.464844 9.386719 28.671875 5.714844zm0 0" fill="#fec108" data-original="#FEC108" class="active-path" style="fill:#4C5B5C" data-old_color="#FEC108"/><path d="m471.085938 164.980469c-34.472657 32.171875-68.921876 64.230469-103.335938 96.171875-14.242188-3.449219-27.941406-8.847656-40.707031-16.042969-2.730469-1.621094-5.460938-3.242187-8.105469-5.035156-.742188-.402344-1.453125-.859375-2.132812-1.363281-2.644532-1.707032-5.121094-3.585938-7.59375-5.460938-2.988282-2.21875-5.890626-4.609375-8.621094-7.085938-2.558594-2.21875-5.035156-4.605468-7.421875-6.996093l-.085938-.085938c-2.902343-2.984375-5.71875-6.058593-8.363281-9.214843-.851562-.9375-1.621094-1.878907-2.390625-2.816407-1.191406-1.449219-2.300781-2.902343-3.410156-4.351562 0-.046875-.039063-.085938-.085938-.085938-2.050781-2.816406-4.097656-5.71875-6.058593-8.789062-7.171876-11.074219-12.933594-23-17.152344-35.5-.855469-2.730469-1.707032-5.460938-2.390625-8.191407-.683594-2.132812-1.195313-4.351562-1.707031-6.570312 28.332031-29.953125 56.832031-59.988281 85.164062-89.941406 3.753906-3.925782 7.421875-7.851563 11.179688-11.773438-4.695313 5.628906-1.453126 18.089844 7.59375 33.449219 1.792968 3.070313 3.753906 6.144531 5.972656 9.300781 4.96875 7.34375 10.414062 14.355469 16.296875 20.992188 4.269531 4.949218 8.960937 9.984375 13.910156 14.933594 0 .085937.171875.253906.257813.339843 14.757812 15.21875 31.558593 28.316407 49.917968 38.914063 13.484375 7.167968 24.152344 9.386718 29.269532 5.203125zm0 0" fill="#283593" data-original="#283593" class="" style="fill:#33879A" data-old_color="#33889B"/><path d="m91.097656 498.804688c-9.984375 9.984374-35.414062.597656-56.917968-20.820313l-.253907-.257813c-3.636719-3.585937-7.003906-7.433593-10.070312-11.519531l-.171875-.167969c-14.078125-18.433593-19.027344-37.292968-10.835938-45.484374 4.046875-3.457032 9.464844-4.84375 14.675782-3.753907 3.550781.4375 7.023437 1.359375 10.324218 2.730469-.289062.363281-.601562.703125-.9375 1.023438 3.074219 7.460937 7.058594 14.511718 11.863282 20.992187 3.058593 4.167969 6.457031 8.078125 10.152343 11.691406 5.914063 5.886719 12.535157 11.019531 19.714844 15.273438 4.019531 2.332031 8.179687 4.410156 12.457031 6.230469.335938-.320313.648438-.664063.9375-1.023438 4.183594 10.664062 4.183594 19.96875-.9375 25.085938zm0 0" fill="#283593" data-original="#283593" class="" style="fill:#33879A" data-old_color="#33889B"/><path d="m484.226562 120.265625c-.320312.308594-.664062.589844-1.023437.855469-11.007813 7.765625-45.394531-11.519532-78.761719-44.542969-.085937-.085937-.253906-.171875-.339844-.34375-21.078124-24.488281-33.792968-47.53125-32.429687-59.390625.078125-2.132812.929687-4.164062 2.390625-5.71875 9.8125-9.8125 45.3125 9.644531 79.785156 43.691406l.34375.339844c25.34375 29.355469 38.484375 56.664062 30.035156 65.109375zm0 0" fill="#00bcd4" data-original="#00BCD4" class="" style="fill:#59A4B5" data-old_color="#00BCD4"/><path d="m292.738281 266.359375-96.679687 84.5625c-3.265625-1.5625-6.429688-3.328125-9.472656-5.289063-8.296876-4.921874-16.070313-10.667968-23.210938-17.152343-.769531-.597657-1.449219-1.195313-2.21875-1.878907l-.085938-.082031c-4.554687-5.605469-8.691406-11.539062-12.371093-17.75-1.960938-3.042969-3.730469-6.207031-5.292969-9.472656l85.847656-98.132813c4.707032 7.644532 10.105469 14.839844 16.125 21.503907 1.707032 1.792969 3.414063 3.667969 5.121094 5.375 1.878906 2.046875 3.925781 3.925781 5.886719 5.71875 1.707031 2.132812 3.5 4.179687 5.292969 6.226562 1.707031 1.792969 3.414062 3.671875 5.121093 5.378907 3.394531 3.523437 6.984375 6.855468 10.75 9.984374 1.878907 1.535157 3.839844 3.070313 5.804688 4.519532 2.984375 2.304687 6.140625 4.4375 9.382812 6.488281zm0 0" fill="#3f51b5" data-original="#3F51B5" class="" style="fill:#3791A6" data-old_color="#3F51B5"/><path d="m160.984375 371.148438-3.582031 3.582031c-19.628906 19.710937-39.425782 39.511719-59.136719 59.136719-9.460937-3.882813-18.242187-9.238282-26.027344-15.871094-4.820312-6.46875-8.808593-13.523438-11.859375-20.992188 20.050782-19.96875 40.191406-40.109375 60.160156-60.160156 3.097657 3.925781 6.429688 7.660156 9.984376 11.179688 1.703124 1.703124 3.496093 3.328124 5.289062 4.863281 7.683594 7.007812 16.125 13.132812 25.171875 18.261719zm0 0" fill="#3f51b5" data-original="#3F51B5" class="" style="fill:#3791A6" data-old_color="#3F51B5"/><path d="m470.832031 132.726562-15.445312 14.421876c-.179688.191406-.382813.363281-.597657.511718-10.410156 8.617188-44.375-9.898437-77.058593-42.070312-5.882813-6.636719-11.328125-13.648438-16.296875-20.992188-2.21875-3.15625-4.179688-6.316406-5.972656-9.300781-9.046876-15.359375-12.289063-27.820313-7.59375-33.449219.148437-.21875.320312-.417968.511718-.597656 5.117188-5.378906 10.152344-10.667969 15.273438-15.957031 10.855468 18.25 24.050781 35.003906 39.253906 49.832031l.253906.257812c.292969.304688.605469.589844.941406.851563.148438.21875.320313.417969.511719.597656 4.523438 5.121094 9.386719 10.410157 14.589844 15.617188l.257813.253906c15.183593 15.660156 32.472656 29.132813 51.371093 40.023437zm0 0" fill="#ffeb3a" data-original="#FFEB3A" class="" style="fill:#607174" data-old_color="#5F7072"/><path d="m441.816406 159.777344c-30.121094 28.074218-60.246094 56.089844-90.367187 84.050781-14.242188-3.449219-27.9375-8.847656-40.703125-16.039063-2.730469-1.625-5.460938-3.246093-8.105469-5.035156-.742187-.40625-1.457031-.863281-2.136719-1.367187-2.644531-1.707031-5.117187-3.582031-7.59375-5.460938-2.984375-2.21875-5.886718-4.609375-8.617187-7.082031-.683594-.597656-1.367188-1.195312-1.964844-1.792969-1.191406-1.449219-2.300781-2.902343-3.410156-4.351562 0-.046875-.039063-.085938-.085938-.085938-2.050781-2.816406-4.097656-5.71875-6.058593-8.789062-7.171876-11.074219-12.933594-23-17.152344-35.5-.855469-2.730469-1.707032-5.460938-2.390625-8.191407-.683594-2.132812-1.195313-4.351562-1.707031-6.570312 28.332031-29.953125 56.832031-59.988281 85.164062-89.941406.765625 1.453125 1.621094 2.902344 2.472656 4.351562 1.792969 3.074219 3.757813 6.144532 5.976563 9.300782 8.925781 12.890624 19.039062 24.917968 30.207031 35.925781 0 .085937.167969.257812.253906.34375.683594.679687 1.453125 1.363281 2.132813 2.046875 4.269531 4.949218 8.960937 9.984375 13.910156 14.933594 0 .085937.171875.253906.257813.339843 14.757812 15.21875 31.558593 28.316407 49.917968 38.914063zm0 0" fill="#3f51b5" data-original="#3F51B5" class="" style="fill:#3791A6" data-old_color="#3F51B5"/><path d="m74.800781 481.484375c-9.046875 9.042969-30.890625 2.132813-50.945312-15.277344l-.171875-.167969c-14.078125-18.433593-19.027344-37.292968-10.835938-45.484374 4.046875-3.457032 9.464844-4.84375 14.675782-3.753907 4.257812 6.949219 9.328124 13.363281 15.105468 19.113281 1.960938 1.964844 4.011719 3.839844 6.144532 5.632813 7.804687 6.601563 16.582031 11.957031 26.027343 15.871094.332031-.320313.648438-.660157.9375-1.023438 1.582031 3.867188 2.558594 7.953125 2.902344 12.117188.710937 4.679687-.695313 9.433593-3.839844 12.972656zm0 0" fill="#3f51b5" data-original="#3F51B5" class="" style="fill:#3791A6" data-old_color="#3F51B5"/><path d="m185.390625 401.363281c-1.277344-.003906-2.535156-.296875-3.6875-.851562-2.992187-1.433594-5.851563-2.996094-8.710937-4.675781-23.902344-13.589844-43.691407-33.382813-57.277344-57.285157-1.613282-2.730469-3.171875-5.597656-4.613282-8.601562-1.484374-3.121094-.941406-6.824219 1.371094-9.386719 8.148438-8.988281 16.351563-18.03125 24.621094-27.015625 2.039062-2.339844 5.1875-3.386719 8.21875-2.734375 3.035156.652344 5.476562 2.898438 6.375 5.867188.902344 2.96875.117188 6.191406-2.042969 8.417968-6.886719 7.492188-13.730469 15.027344-20.539062 22.53125.453125.800782.902343 1.59375 1.375 2.386719 12.09375 21.335937 29.734375 38.996094 51.054687 51.117187.851563.492188 1.707032.980469 2.515625 1.441407 7.507813-6.828125 15.023438-13.675781 22.535157-20.539063 3.472656-3.191406 8.871093-2.960937 12.058593.511719 3.1875 3.46875 2.960938 8.867187-.511719 12.054687-8.984374 8.261719-18.03125 16.460938-27.015624 24.601563-1.578126 1.40625-3.617188 2.171875-5.726563 2.160156zm0 0" data-original="#000000" class="" style="fill:#4C5B5C" data-old_color="#000000"/><path d="m212.355469 376.804688c-1.28125-.003907-2.546875-.292969-3.703125-.851563-3.511719-1.726563-6.929688-3.636719-10.238282-5.71875-9.355468-5.574219-18.097656-12.117187-26.078124-19.523437-.523438-.390626-1.023438-.804688-1.503907-1.246094-.640625-.53125-1.183593-1.050782-1.78125-1.648438-1.75-1.628906-3.578125-3.414062-5.335937-5.339844-.535156-.519531-1.039063-1.070312-1.507813-1.648437-.53125-.570313-1.015625-1.1875-1.496093-1.808594-7.347657-7.902343-13.824219-16.570312-19.328126-25.855469-2.070312-3.308593-3.960937-6.726562-5.664062-10.242187-1.476562-3.050781-1.003906-6.691406 1.203125-9.265625l90.683594-103.671875c2-2.3125 5.085937-3.378906 8.089843-2.792969 3.003907.585938 5.460938 2.734375 6.445313 5.632813.984375 2.894531.339844 6.097656-1.683594 8.390625l-86.808593 99.257812c.730468 1.289063 1.5 2.5625 2.285156 3.839844 5.050781 8.507812 10.996094 16.445312 17.742187 23.679688.203125.222656.398438.453124.578125.683593.179688.230469.855469 1.023438 1.078125 1.304688.1875.230469.394531.445312.621094.640625 1.707031 1.820312 3.242187 3.371094 4.839844 4.855468.441406.4375.621093.640626.851562.855469.300781.222657.585938.464844.855469.722657.238281.179687.929688.71875 1.148438.921874 7.207031 6.703126 15.109374 12.617188 23.570312 17.640626 1.332031.851562 2.636719 1.605468 3.941406 2.347656l97.957032-85.589844c1.53125-1.65625 3.660156-2.632812 5.914062-2.714844 2.257812-.082031 4.449219.738282 6.097656 2.277344 1.773438 1.652344 2.769532 3.972656 2.742188 6.394531s-1.074219 4.71875-2.886719 6.328125l-102.996094 90.035156c-1.558593 1.363282-3.5625 2.113282-5.632812 2.109376zm0 0" data-original="#000000" class="" style="fill:#4C5B5C" data-old_color="#000000"/><path d="m90.378906 483.0625c-.875.015625-1.746094-.144531-2.558594-.46875-26.558593-11.121094-47.679687-32.242188-58.792968-58.804688-1.324219-3.1875-.589844-6.859374 1.851562-9.300781l86.1875-86.1875c3.347656-3.234375 8.667969-3.1875 11.960938.105469 3.289062 3.289062 3.335937 8.613281.101562 11.960938l-81.996094 82.015624c9.015626 18.292969 23.820313 33.101563 42.113282 42.117188l82.039062-82.039062c2.144532-2.21875 5.316406-3.105469 8.300782-2.324219 2.980468.78125 5.3125 3.109375 6.09375 6.09375s-.109376 6.15625-2.328126 8.296875l-85.238281 85.25c-2.078125 2.019531-4.835937 3.191406-7.734375 3.285156zm0 0" data-original="#000000" class="" style="fill:#4C5B5C" data-old_color="#000000"/><path d="m114.589844 459.765625c-1.121094 0-2.230469-.214844-3.269532-.640625-26.621093-11.050781-47.777343-32.203125-58.828124-58.828125-1.3125-3.1875-.578126-6.847656 1.859374-9.285156l62.753907-62.703125c3.351562-3.234375 8.671875-3.1875 11.964843.105468 3.289063 3.292969 3.335938 8.613282.101563 11.960938l-58.570313 58.539062c8.964844 18.332032 23.78125 33.152344 42.109376 42.121094l58.574218-58.574218c2.144532-2.21875 5.316406-3.105469 8.300782-2.324219 2.980468.78125 5.3125 3.109375 6.09375 6.09375s-.109376 6.15625-2.328126 8.296875l-62.730468 62.738281c-1.597656 1.601563-3.769532 2.5-6.03125 2.5zm0 0" data-original="#000000" class="" style="fill:#4C5B5C" data-old_color="#000000"/><path d="m179.664062 354.34375c-1.921874.003906-3.789062-.648438-5.289062-1.851562-1.28125-1.003907-2.433594-2.003907-3.644531-3.089844-.601563-.488282-1.171875-1.015625-1.707031-1.578125-1.757813-1.636719-3.582032-3.453125-5.339844-5.347657-.699219-.679687-1.34375-1.40625-1.9375-2.175781-.597656-.625-1.597656-1.769531-2.5625-3.039062-2.011719-2.378907-2.574219-5.664063-1.457032-8.574219 1.117188-2.910156 3.730469-4.980469 6.820313-5.398438 3.085937-.421874 6.15625.875 8.011719 3.382813.808594 1.007813 1.609375 1.910156 2.464844 2.875l.929687 1.03125c1.707031 1.863281 3.292969 3.414063 4.890625 4.898437l.851562.792969c1.441407 1.257813 2.347657 2.050781 3.355469 2.851563 2.847657 2.253906 3.953125 6.066406 2.761719 9.496094-1.195312 3.429687-4.429688 5.730468-8.0625 5.726562zm0 0" data-original="#000000" class="" style="fill:#4C5B5C" data-old_color="#000000"/><path d="m340.773438 294.859375c-.621094 0-1.242188-.070313-1.851563-.203125-60.957031-13.621094-108.277344-61.699219-120.933594-122.863281-.5625-2.730469.242188-5.5625 2.160157-7.585938l47.734374-50.347656c32.453126-34.292969 64.96875-68.589844 97.535157-102.886719 2.085937-2.28125 5.238281-3.253906 8.246093-2.550781 3.003907.707031 5.398438 2.980469 6.25 5.949219.855469 2.964844.039063 6.164062-2.128906 8.359375-32.578125 34.253906-65.078125 68.535156-97.503906 102.84375l-44.613281 47.078125c12.25 51.101562 51.746093 91.238281 102.640625 104.3125 51.796875-48.152344 103.597656-96.414063 155.398437-144.792969.324219-.316406.675781-.601563 1.050781-.855469 1.597657-1.582031 3.761719-2.453125 6.007813-2.425781 2.246094.03125 4.386719.964844 5.9375 2.589844 3.273437 3.421875 3.179687 8.839843-.210937 12.140625-.464844.464844-.949219.902344-1.460938 1.316406-52.808594 49.320312-105.625 98.53125-158.445312 147.625-1.578126 1.472656-3.652344 2.292969-5.8125 2.296875zm0 0" data-original="#000000" class="" style="fill:#4C5B5C" data-old_color="#000000"/><path d="m453.363281 130.148438c-.957031 0-1.910156-.160157-2.816406-.476563-1.335937-.511719-2.554687-1.28125-3.582031-2.269531-2.789063-2.992188-3.101563-7.527344-.75-10.871094 2.351562-3.34375 6.722656-4.582031 10.480468-2.96875 3.757813 1.613281 5.871094 5.636719 5.0625 9.644531-.804687 4.007813-4.304687 6.90625-8.394531 6.941407zm0 0" data-original="#000000" class="" style="fill:#4C5B5C" data-old_color="#000000"/><path d="m367.757812 269.695312c-.675781 0-1.347656-.074218-2.007812-.230468-60.96875-14.933594-108.347656-62.90625-122.519531-124.058594-1.042969-4.597656 1.839843-9.167969 6.4375-10.210938 4.597656-1.039062 9.167969 1.84375 10.210937 6.4375 12.699219 54.839844 55.1875 97.859376 109.867188 111.234376 4.195312 1.015624 6.976562 5.007812 6.46875 9.296874-.507813 4.289063-4.140625 7.523438-8.457032 7.53125zm0 0" data-original="#000000" class="" style="fill:#4C5B5C" data-old_color="#000000"/><path d="m493.121094 148.699219c-22.964844 0-59.019532-29.335938-79.933594-50.261719-25.71875-25.710938-64.171875-74.316406-45.148438-93.335938 19.019532-19.019531 67.617188 19.421876 93.335938 45.148438 25.71875 25.730469 64.179688 74.328125 45.160156 93.347656-3.582031 3.46875-8.433594 5.316406-13.414062 5.101563zm-113-131.480469c-1.84375 5.316406 8.464844 32.511719 45.097656 69.121094 37.242188 37.246094 64.742188 47.265625 69.410156 45.003906 1.929688-4.308594-8.097656-31.8125-45.351562-69.0625-36.609375-36.605469-63.78125-46.898438-69.15625-45.0625zm0 0" data-original="#000000" class="" style="fill:#4C5B5C" data-old_color="#000000"/><path d="m463.902344 175.621094c-22.699219 0-57.71875-28.378906-78.039063-48.699219-25.105469-25.105469-62.515625-72.660156-43.519531-91.679687 3.332031-3.339844 8.742188-3.347657 12.078125-.015626 3.339844 3.332032 3.347656 8.742188.015625 12.082032-2.269531 4.382812 7.117188 31.179687 43.519531 67.546875 36.402344 36.371093 63.144531 45.765625 67.695313 43.375 1.589844-1.578125 3.742187-2.457031 5.984375-2.445313 2.242187.011719 4.386719.914063 5.960937 2.507813 3.339844 3.367187 3.316406 8.808593-.050781 12.148437-3.648437 3.523438-8.578125 5.398438-13.644531 5.179688zm0 0" data-original="#000000" class="" style="fill:#4C5B5C" data-old_color="#000000"/><path d="m80.039062 511.214844c-14.96875 0-34.507812-9.816406-52.15625-27.460938-25.789062-25.738281-34.808593-55.527344-21.078124-69.257812 7.519531-7.515625 19.628906-8.53125 34.183593-2.875 4.328125 1.753906 6.441407 6.660156 4.742188 11.007812-1.695313 4.351563-6.574219 6.527344-10.945313 4.890625-8.386718-3.269531-14.035156-2.84375-15.90625-.957031-4.792968 4.789062 1.171875 25.234375 21.070313 45.132812 19.898437 19.898438 40.335937 25.863282 45.125 21.070313 1.882812-1.878906 2.3125-7.527344-.957031-15.90625-1.714844-4.394531.457031-9.34375 4.851562-11.054687 4.390625-1.714844 9.339844.457031 11.054688 4.851562 5.65625 14.503906 4.640624 26.65625-2.882813 34.175781-4.601563 4.355469-10.773437 6.660157-17.101563 6.382813zm0 0" data-original="#000000" class="" style="fill:#4C5B5C" data-old_color="#000000"/><path d="m364.136719 232.292969c-3.449219 0-6.558594-2.078125-7.878907-5.269531-1.320312-3.1875-.59375-6.855469 1.847657-9.296876l44.972656-44.972656c3.378906-3.011718 8.523437-2.859375 11.71875.347656 3.195313 3.203126 3.332031 8.347657.3125 11.71875l-44.972656 44.972657c-1.589844 1.589843-3.746094 2.492187-6 2.5zm0 0" data-original="#000000" class="" style="fill:#4C5B5C" data-old_color="#000000"/></g> </svg>
